<svg xmlns="http://www.w3.org/2000/svg" width="119" height="54" viewBox="0 0 119 54">
    <g fill="none" fill-rule="evenodd">
        <path fill="#18191F" fill-rule="nonzero" d="M58.31 42.718c.835 0 1.516-.29 2.043-.873.528-.582.791-1.428.791-2.537V24.453h1.377c1 0 1.784-.123 2.353-.37.568-.246.852-.828.852-1.746 0-1.288-1.068-1.931-3.205-1.931h-1.377V19.07c0-1.11.144-1.962.432-2.558.288-.596.938-.894 1.952-.894.37 0 .822.042 1.356.124.534.082.91.123 1.13.123.466 0 .87-.185 1.212-.555.342-.37.514-.815.514-1.335 0-1.603-1.637-2.404-4.91-2.404-1.85 0-3.305.236-4.367.709-1.061.472-1.815 1.226-2.26 2.26-.445 1.034-.668 2.428-.668 4.18v1.686H54.2c-1.877 0-2.815.67-2.815 2.013 0 .603.226 1.092.678 1.47.452.376 1.096.564 1.932.564h1.54v14.855c0 1.11.264 1.955.791 2.537.528.582 1.189.873 1.983.873zm14.755-25.415c.754 0 1.404-.243 1.952-.73.548-.485.822-1.16.822-2.023 0-.89-.28-1.568-.843-2.034-.561-.466-1.205-.699-1.93-.699-.754 0-1.415.257-1.983.77-.569.515-.853 1.169-.853 1.963 0 .877.277 1.555.832 2.034.555.48 1.222.72 2.003.72zm-.061 25.415c.821 0 1.5-.287 2.034-.863.534-.575.8-1.424.8-2.547v-16.21c0-1-.266-1.782-.8-2.343-.535-.562-1.213-.843-2.034-.843-.822 0-1.49.281-2.004.843-.513.561-.77 1.397-.77 2.506v16.047c0 1.096.257 1.938.77 2.527.514.589 1.182.883 2.004.883zm13.338 0c.835 0 1.517-.29 2.044-.873.528-.582.791-1.428.791-2.537V24.453h1.377c1 0 1.784-.123 2.352-.37.569-.246.853-.828.853-1.746 0-1.288-1.068-1.931-3.205-1.931h-1.377V19.07c0-1.11.144-1.962.432-2.558.287-.596.938-.894 1.952-.894.37 0 .821.042 1.356.124.534.082.91.123 1.13.123.465 0 .87-.185 1.212-.555.342-.37.513-.815.513-1.335 0-1.603-1.636-2.404-4.91-2.404-1.85 0-3.304.236-4.366.709-1.062.472-1.815 1.226-2.26 2.26-.445 1.034-.668 2.428-.668 4.18v1.686h-1.335c-1.877 0-2.815.67-2.815 2.013 0 .603.226 1.092.678 1.47.452.376 1.096.564 1.931.564h1.541v14.855c0 1.11.264 1.955.791 2.537.528.582 1.188.873 1.983.873zm20.653 0c1.712 0 3.253-.27 4.622-.811 1.37-.541 2.548-1.319 3.534-2.332.987-1.014 1.74-2.226 2.26-3.637.52-1.41.781-2.951.781-4.623 0-1.684-.257-3.225-.77-4.622-.514-1.397-1.264-2.603-2.25-3.616-.986-1.014-2.171-1.795-3.555-2.343-1.383-.548-2.924-.822-4.622-.822-1.671 0-3.199.271-4.582.812-1.384.541-2.561 1.312-3.534 2.311-.972 1-1.719 2.206-2.24 3.617-.52 1.41-.78 2.965-.78 4.663 0 1.685.257 3.223.77 4.613.514 1.39 1.267 2.596 2.26 3.616.993 1.02 2.168 1.805 3.524 2.353 1.356.547 2.883.821 4.582.821zm0-4.17c-1.124 0-2.1-.291-2.928-.874-.829-.582-1.466-1.42-1.91-2.516-.446-1.096-.669-2.377-.669-3.843 0-1.479.226-2.773.678-3.883.452-1.11 1.096-1.948 1.932-2.517.835-.568 1.8-.852 2.897-.852 1.698 0 3.05.637 4.057 1.91 1.007 1.274 1.51 3.055 1.51 5.342 0 2.26-.503 4.03-1.51 5.312-1.006 1.28-2.359 1.92-4.057 1.92z"/>
        <path fill="#03A4FF" stroke="#03A4FF" d="M1.494 26.666L42.137 1.048v38.895l-4.707-3.139V9.302L10.036 26.777l32.101 20.417V52.5L1.494 26.666z"/>
    </g>
</svg>
